# Blender v2.75 (sub 0) OBJ File: ''
# www.blender.org
mtllib adjustable_storage_top.mtl
o Top_Cube.006
v 0.000000 0.749000 1.000000
v 0.000000 1.001000 1.000000
v 0.000000 0.749000 0.000000
v 0.000000 1.001000 0.000000
v 1.000000 0.749000 1.000000
v 1.000000 1.001000 1.000000
v 1.000000 0.749000 0.000000
v 1.000000 1.001000 0.000000
vt 0.250000 0.656250
vt 0.000000 0.656250
vt 0.000000 0.750000
vt 0.250000 0.750000
vt 0.000000 0.406250
vt 0.250000 0.406250
vt 0.250000 1.000000
vt 0.000000 1.000000
vn -1.000000 0.000000 0.000000
vn 0.000000 0.000000 -1.000000
vn 1.000000 0.000000 0.000000
vn 0.000000 0.000000 1.000000
vn 0.000000 -1.000000 0.000000
vn 0.000000 1.000000 0.000000
usemtl None
s off
f 2/1/1 4/2/1 3/3/1 1/4/1
f 4/2/2 8/1/2 7/4/2 3/3/2
f 8/1/3 6/2/3 5/3/3 7/4/3
f 6/2/4 2/1/4 1/4/4 5/3/4
f 1/2/5 3/5/5 7/6/5 5/1/5
f 6/4/6 8/7/6 4/8/6 2/3/6
